<mxfile host="app.diagrams.net" agent="Mozilla/5.0 (Windows NT 10.0; Win64; x64) AppleWebKit/537.36 (KHTML, like Gecko) Chrome/131.0.0.0 Safari/537.36" version="24.8.3">
  <diagram name="Page-1" id="eMjuD_vQ96FwfZKxSbPS">
    <mxGraphModel dx="1912" dy="984" grid="0" gridSize="10" guides="1" tooltips="1" connect="1" arrows="1" fold="1" page="1" pageScale="1" pageWidth="850" pageHeight="1100" math="0" shadow="0">
      <root>
        <mxCell id="0" />
        <mxCell id="1" parent="0" />
        <mxCell id="tmX9DEj4_0aNLp_2lhBu-1" value="" style="rounded=0;whiteSpace=wrap;html=1;" vertex="1" parent="1">
          <mxGeometry width="850" height="60" as="geometry" />
        </mxCell>
        <mxCell id="tmX9DEj4_0aNLp_2lhBu-2" value="" style="rounded=0;whiteSpace=wrap;html=1;" vertex="1" parent="1">
          <mxGeometry y="1060" width="850" height="40" as="geometry" />
        </mxCell>
        <mxCell id="tmX9DEj4_0aNLp_2lhBu-6" value="" style="swimlane;startSize=0;" vertex="1" parent="1">
          <mxGeometry x="201" y="247" width="480" height="520" as="geometry" />
        </mxCell>
        <mxCell id="tmX9DEj4_0aNLp_2lhBu-9" value="&lt;span style=&quot;font-size: 20px; font-weight: 700;&quot;&gt;TO DO LIST&lt;/span&gt;" style="swimlane;fontStyle=0;childLayout=stackLayout;horizontal=1;startSize=30;horizontalStack=0;resizeParent=1;resizeParentMax=0;resizeLast=0;collapsible=1;marginBottom=0;whiteSpace=wrap;html=1;" vertex="1" parent="tmX9DEj4_0aNLp_2lhBu-6">
          <mxGeometry x="107" y="65" width="260" height="380" as="geometry" />
        </mxCell>
        <mxCell id="tmX9DEj4_0aNLp_2lhBu-11" value="Item 1" style="text;strokeColor=none;fillColor=none;align=left;verticalAlign=middle;spacingLeft=4;spacingRight=4;overflow=hidden;points=[[0,0.5],[1,0.5]];portConstraint=eastwest;rotatable=0;whiteSpace=wrap;html=1;" vertex="1" parent="tmX9DEj4_0aNLp_2lhBu-9">
          <mxGeometry y="30" width="260" height="60" as="geometry" />
        </mxCell>
        <mxCell id="tmX9DEj4_0aNLp_2lhBu-12" value="Item 2" style="text;strokeColor=none;fillColor=none;align=left;verticalAlign=middle;spacingLeft=4;spacingRight=4;overflow=hidden;points=[[0,0.5],[1,0.5]];portConstraint=eastwest;rotatable=0;whiteSpace=wrap;html=1;" vertex="1" parent="tmX9DEj4_0aNLp_2lhBu-9">
          <mxGeometry y="90" width="260" height="50" as="geometry" />
        </mxCell>
        <mxCell id="tmX9DEj4_0aNLp_2lhBu-14" value="Item 3" style="text;strokeColor=none;fillColor=none;align=left;verticalAlign=middle;spacingLeft=4;spacingRight=4;overflow=hidden;points=[[0,0.5],[1,0.5]];portConstraint=eastwest;rotatable=0;whiteSpace=wrap;html=1;" vertex="1" parent="tmX9DEj4_0aNLp_2lhBu-9">
          <mxGeometry y="140" width="260" height="60" as="geometry" />
        </mxCell>
        <mxCell id="tmX9DEj4_0aNLp_2lhBu-15" value="Item 4" style="text;strokeColor=none;fillColor=none;align=left;verticalAlign=middle;spacingLeft=4;spacingRight=4;overflow=hidden;points=[[0,0.5],[1,0.5]];portConstraint=eastwest;rotatable=0;whiteSpace=wrap;html=1;" vertex="1" parent="tmX9DEj4_0aNLp_2lhBu-9">
          <mxGeometry y="200" width="260" height="60" as="geometry" />
        </mxCell>
        <mxCell id="tmX9DEj4_0aNLp_2lhBu-16" value="Item 5" style="text;strokeColor=none;fillColor=none;align=left;verticalAlign=middle;spacingLeft=4;spacingRight=4;overflow=hidden;points=[[0,0.5],[1,0.5]];portConstraint=eastwest;rotatable=0;whiteSpace=wrap;html=1;" vertex="1" parent="tmX9DEj4_0aNLp_2lhBu-9">
          <mxGeometry y="260" width="260" height="60" as="geometry" />
        </mxCell>
        <mxCell id="tmX9DEj4_0aNLp_2lhBu-17" value="Item 6" style="text;strokeColor=none;fillColor=none;align=left;verticalAlign=middle;spacingLeft=4;spacingRight=4;overflow=hidden;points=[[0,0.5],[1,0.5]];portConstraint=eastwest;rotatable=0;whiteSpace=wrap;html=1;" vertex="1" parent="tmX9DEj4_0aNLp_2lhBu-9">
          <mxGeometry y="320" width="260" height="60" as="geometry" />
        </mxCell>
        <mxCell id="tmX9DEj4_0aNLp_2lhBu-22" value="" style="strokeColor=#999999;verticalLabelPosition=bottom;shadow=0;dashed=0;verticalAlign=top;strokeWidth=2;html=1;shape=mxgraph.mockup.misc.trashcanIcon;" vertex="1" parent="tmX9DEj4_0aNLp_2lhBu-6">
          <mxGeometry x="371" y="118" width="17" height="21" as="geometry" />
        </mxCell>
        <mxCell id="tmX9DEj4_0aNLp_2lhBu-24" value="" style="strokeColor=#999999;verticalLabelPosition=bottom;shadow=0;dashed=0;verticalAlign=top;strokeWidth=2;html=1;shape=mxgraph.mockup.misc.trashcanIcon;" vertex="1" parent="tmX9DEj4_0aNLp_2lhBu-6">
          <mxGeometry x="371" y="169" width="18" height="22" as="geometry" />
        </mxCell>
        <mxCell id="tmX9DEj4_0aNLp_2lhBu-25" value="" style="strokeColor=#999999;verticalLabelPosition=bottom;shadow=0;dashed=0;verticalAlign=top;strokeWidth=2;html=1;shape=mxgraph.mockup.misc.trashcanIcon;" vertex="1" parent="tmX9DEj4_0aNLp_2lhBu-6">
          <mxGeometry x="371" y="288" width="18" height="22" as="geometry" />
        </mxCell>
        <mxCell id="tmX9DEj4_0aNLp_2lhBu-26" value="" style="strokeColor=#999999;verticalLabelPosition=bottom;shadow=0;dashed=0;verticalAlign=top;strokeWidth=2;html=1;shape=mxgraph.mockup.misc.trashcanIcon;" vertex="1" parent="tmX9DEj4_0aNLp_2lhBu-6">
          <mxGeometry x="371" y="353" width="18" height="22" as="geometry" />
        </mxCell>
        <mxCell id="tmX9DEj4_0aNLp_2lhBu-27" value="" style="strokeColor=#999999;verticalLabelPosition=bottom;shadow=0;dashed=0;verticalAlign=top;strokeWidth=2;html=1;shape=mxgraph.mockup.misc.trashcanIcon;" vertex="1" parent="tmX9DEj4_0aNLp_2lhBu-6">
          <mxGeometry x="371" y="417" width="18" height="22" as="geometry" />
        </mxCell>
        <mxCell id="tmX9DEj4_0aNLp_2lhBu-28" value="" style="strokeColor=#999999;verticalLabelPosition=bottom;shadow=0;dashed=0;verticalAlign=top;strokeWidth=2;html=1;shape=mxgraph.mockup.misc.trashcanIcon;" vertex="1" parent="tmX9DEj4_0aNLp_2lhBu-6">
          <mxGeometry x="371" y="229" width="18" height="22" as="geometry" />
        </mxCell>
        <mxCell id="tmX9DEj4_0aNLp_2lhBu-29" value="" style="verticalLabelPosition=bottom;verticalAlign=top;html=1;shape=mxgraph.basic.tick" vertex="1" parent="tmX9DEj4_0aNLp_2lhBu-6">
          <mxGeometry x="399" y="118" width="18" height="21" as="geometry" />
        </mxCell>
        <mxCell id="tmX9DEj4_0aNLp_2lhBu-30" value="" style="verticalLabelPosition=bottom;verticalAlign=top;html=1;shape=mxgraph.basic.tick" vertex="1" parent="tmX9DEj4_0aNLp_2lhBu-6">
          <mxGeometry x="399" y="170" width="18" height="21" as="geometry" />
        </mxCell>
        <mxCell id="tmX9DEj4_0aNLp_2lhBu-31" value="" style="verticalLabelPosition=bottom;verticalAlign=top;html=1;shape=mxgraph.basic.tick" vertex="1" parent="tmX9DEj4_0aNLp_2lhBu-6">
          <mxGeometry x="399" y="229.5" width="18" height="21" as="geometry" />
        </mxCell>
        <mxCell id="tmX9DEj4_0aNLp_2lhBu-32" value="" style="verticalLabelPosition=bottom;verticalAlign=top;html=1;shape=mxgraph.basic.tick" vertex="1" parent="tmX9DEj4_0aNLp_2lhBu-6">
          <mxGeometry x="399" y="288.5" width="18" height="21" as="geometry" />
        </mxCell>
        <mxCell id="tmX9DEj4_0aNLp_2lhBu-33" value="" style="verticalLabelPosition=bottom;verticalAlign=top;html=1;shape=mxgraph.basic.tick" vertex="1" parent="tmX9DEj4_0aNLp_2lhBu-6">
          <mxGeometry x="399" y="353.5" width="18" height="21" as="geometry" />
        </mxCell>
        <mxCell id="tmX9DEj4_0aNLp_2lhBu-34" value="" style="verticalLabelPosition=bottom;verticalAlign=top;html=1;shape=mxgraph.basic.tick" vertex="1" parent="tmX9DEj4_0aNLp_2lhBu-6">
          <mxGeometry x="399" y="417.5" width="18" height="21" as="geometry" />
        </mxCell>
        <mxCell id="tmX9DEj4_0aNLp_2lhBu-19" value="" style="rounded=0;whiteSpace=wrap;html=1;" vertex="1" parent="1">
          <mxGeometry y="1062" width="282" height="38" as="geometry" />
        </mxCell>
        <mxCell id="tmX9DEj4_0aNLp_2lhBu-20" value="" style="rounded=0;whiteSpace=wrap;html=1;" vertex="1" parent="1">
          <mxGeometry x="280" y="1062" width="282" height="38" as="geometry" />
        </mxCell>
        <mxCell id="tmX9DEj4_0aNLp_2lhBu-21" value="" style="rounded=0;whiteSpace=wrap;html=1;" vertex="1" parent="1">
          <mxGeometry x="564" y="1062" width="284" height="38" as="geometry" />
        </mxCell>
        <mxCell id="tmX9DEj4_0aNLp_2lhBu-35" value="" style="rounded=0;whiteSpace=wrap;html=1;" vertex="1" parent="1">
          <mxGeometry x="198" y="153" width="483" height="60" as="geometry" />
        </mxCell>
        <mxCell id="tmX9DEj4_0aNLp_2lhBu-37" value="+" style="ellipse;whiteSpace=wrap;html=1;aspect=fixed;fontSize=32;" vertex="1" parent="1">
          <mxGeometry x="583" y="156.5" width="53" height="53" as="geometry" />
        </mxCell>
        <mxCell id="tmX9DEj4_0aNLp_2lhBu-38" value="" style="rounded=0;whiteSpace=wrap;html=1;" vertex="1" parent="1">
          <mxGeometry x="235" y="164" width="299" height="40" as="geometry" />
        </mxCell>
        <mxCell id="tmX9DEj4_0aNLp_2lhBu-39" value="What do I need to do? (input text box)" style="text;html=1;align=center;verticalAlign=middle;whiteSpace=wrap;rounded=0;" vertex="1" parent="1">
          <mxGeometry x="277" y="169" width="212" height="30" as="geometry" />
        </mxCell>
        <mxCell id="tmX9DEj4_0aNLp_2lhBu-40" value="" style="whiteSpace=wrap;html=1;aspect=fixed;" vertex="1" parent="1">
          <mxGeometry x="15" y="3" width="48" height="48" as="geometry" />
        </mxCell>
        <mxCell id="tmX9DEj4_0aNLp_2lhBu-41" value="" style="line;strokeWidth=2;html=1;" vertex="1" parent="1">
          <mxGeometry x="15" y="9" width="45" height="10" as="geometry" />
        </mxCell>
        <mxCell id="tmX9DEj4_0aNLp_2lhBu-42" value="" style="line;strokeWidth=2;html=1;" vertex="1" parent="1">
          <mxGeometry x="19.25" y="22" width="37" height="10" as="geometry" />
        </mxCell>
        <mxCell id="tmX9DEj4_0aNLp_2lhBu-43" value="" style="line;strokeWidth=2;html=1;" vertex="1" parent="1">
          <mxGeometry x="15" y="37" width="45.5" height="7" as="geometry" />
        </mxCell>
      </root>
    </mxGraphModel>
  </diagram>
</mxfile>
